<?xml version="1.0" encoding="UTF-8"?>
<svg xmlns="http://www.w3.org/2000/svg" xmlns:xlink="http://www.w3.org/1999/xlink" width="369.29pt" height="213.98pt" viewBox="0 0 369.29 213.98" version="1.1">
<defs>
<clipPath id="clip1">
  <path d="M 268 6 L 369.289063 6 L 369.289063 63 L 268 63 Z M 268 6 "/>
</clipPath>
<clipPath id="clip2">
  <path d="M 0.296875 180.257813 L 366.714844 180.257813 L 366.714844 182.394531 L 0.296875 182.394531 Z M 0.296875 180.257813 "/>
</clipPath>
<clipPath id="clip3">
  <path d="M 0 195 L 26 195 L 26 213.980469 L 0 213.980469 Z M 0 195 "/>
</clipPath>
<clipPath id="clip4">
  <path d="M 27 195 L 53 195 L 53 213.980469 L 27 213.980469 Z M 27 195 "/>
</clipPath>
<clipPath id="clip5">
  <path d="M 54 195 L 80 195 L 80 213.980469 L 54 213.980469 Z M 54 195 "/>
</clipPath>
<clipPath id="clip6">
  <path d="M 82 210 L 87 210 L 87 213.980469 L 82 213.980469 Z M 82 210 "/>
</clipPath>
<clipPath id="clip7">
  <path d="M 92 194 L 110 194 L 110 213.980469 L 92 213.980469 Z M 92 194 "/>
</clipPath>
<clipPath id="clip8">
  <path d="M 114 194 L 130 194 L 130 213.980469 L 114 213.980469 Z M 114 194 "/>
</clipPath>
<clipPath id="clip9">
  <path d="M 136 188 L 152 188 L 152 213.980469 L 136 213.980469 Z M 136 188 "/>
</clipPath>
<clipPath id="clip10">
  <path d="M 156 194 L 174 194 L 174 213.980469 L 156 213.980469 Z M 156 194 "/>
</clipPath>
<clipPath id="clip11">
  <path d="M 178 194 L 204 194 L 204 213.980469 L 178 213.980469 Z M 178 194 "/>
</clipPath>
<clipPath id="clip12">
  <path d="M 210 188 L 226 188 L 226 213.980469 L 210 213.980469 Z M 210 188 "/>
</clipPath>
<clipPath id="clip13">
  <path d="M 231 188 L 235 188 L 235 213.980469 L 231 213.980469 Z M 231 188 "/>
</clipPath>
<clipPath id="clip14">
  <path d="M 241 210 L 246 210 L 246 213.980469 L 241 213.980469 Z M 241 210 "/>
</clipPath>
<clipPath id="clip15">
  <path d="M 251 194 L 268 194 L 268 213.980469 L 251 213.980469 Z M 251 194 "/>
</clipPath>
<clipPath id="clip16">
  <path d="M 270 194 L 288 194 L 288 213.980469 L 270 213.980469 Z M 270 194 "/>
</clipPath>
<clipPath id="clip17">
  <path d="M 293 194 L 319 194 L 319 213.980469 L 293 213.980469 Z M 293 194 "/>
</clipPath>
<clipPath id="clip18">
  <path d="M 325 210 L 329 210 L 329 213.980469 L 325 213.980469 Z M 325 210 "/>
</clipPath>
<clipPath id="clip19">
  <path d="M 335 188 L 352 188 L 352 213.980469 L 335 213.980469 Z M 335 188 "/>
</clipPath>
<clipPath id="clip20">
  <path d="M 357 194 L 368 194 L 368 213.980469 L 357 213.980469 Z M 357 194 "/>
</clipPath>
</defs>
<g id="surface1">
<path style=" stroke:none;fill-rule:nonzero;fill:rgb(94.499207%,36.099243%,14.498901%);fill-opacity:1;" d="M 28.015625 41.359375 L 10.035156 66.167969 L 1.597656 66.265625 Z M 28.015625 41.359375 "/>
<path style=" stroke:none;fill-rule:nonzero;fill:rgb(94.499207%,36.099243%,14.498901%);fill-opacity:1;" d="M 31.34375 67.023438 L 44.558594 39.132813 L 12.34375 66.9375 Z M 31.34375 67.023438 "/>
<path style=" stroke:none;fill-rule:nonzero;fill:rgb(94.499207%,36.099243%,14.498901%);fill-opacity:1;" d="M 114.894531 10.1875 L 108.40625 5.628906 L 120.859375 5.628906 Z M 114.894531 10.1875 "/>
<path style=" stroke:none;fill-rule:nonzero;fill:rgb(94.499207%,36.099243%,14.498901%);fill-opacity:1;" d="M 71.851563 38.015625 L 69.035156 66.667969 C 69.035156 66.667969 38.671875 66.667969 37.566406 67.023438 C 38.671875 66.667969 71.851563 38.015625 71.851563 38.015625 "/>
<path style=" stroke:none;fill-rule:nonzero;fill:rgb(94.499207%,36.099243%,14.498901%);fill-opacity:1;" d="M 137.65625 11.292969 L 126.144531 3.445313 L 144.140625 4.777344 Z M 137.65625 11.292969 "/>
<path style=" stroke:none;fill-rule:nonzero;fill:rgb(94.499207%,36.099243%,14.498901%);fill-opacity:1;" d="M 107.910156 39.761719 L 131.789063 66.453125 L 78.664063 66.585938 Z M 107.910156 39.761719 "/>
<path style=" stroke:none;fill-rule:nonzero;fill:rgb(94.499207%,36.099243%,14.498901%);fill-opacity:1;" d="M 148.65625 1.207031 L 167.238281 5.988281 L 173.121094 0.632813 L 161.847656 33.792969 L 132.871094 66.167969 L 161.847656 9.90625 L 148.65625 1.207031 "/>
<path style=" stroke:none;fill-rule:nonzero;fill:rgb(94.499207%,36.099243%,14.498901%);fill-opacity:1;" d="M 188.289063 66.085938 L 186.320313 10.40625 L 183.007813 7.949219 L 188.625 7.949219 L 199.875 0.00390625 L 213.871094 34.359375 L 194.683594 66.085938 L 188.289063 66.085938 "/>
<path style=" stroke:none;fill-rule:nonzero;fill:rgb(94.499207%,36.099243%,14.498901%);fill-opacity:1;" d="M 206.191406 5.40625 L 212.160156 10.769531 L 248.152344 64.703125 L 255.71875 64.703125 L 260.683594 35.074219 L 222.976563 1.566406 L 206.191406 5.40625 "/>
<path style=" stroke:none;fill-rule:nonzero;fill:rgb(94.499207%,36.099243%,14.498901%);fill-opacity:1;" d="M 229.222656 4.289063 L 245.40625 3.261719 L 235.6875 10.769531 Z M 229.222656 4.289063 "/>
<path style=" stroke:none;fill-rule:nonzero;fill:rgb(94.499207%,36.099243%,14.498901%);fill-opacity:1;" d="M 235.769531 10.769531 L 298.515625 64.21875 L 307.71875 63.851563 L 300.21875 36.234375 L 245.242188 3.445313 L 235.769531 10.769531 "/>
<path style=" stroke:none;fill-rule:nonzero;fill:rgb(94.499207%,36.099243%,14.498901%);fill-opacity:1;" d="M 251.214844 4.777344 L 262.054688 4.953125 L 330.0625 38.460938 L 344.035156 63.367188 L 337.65625 63.367188 L 300.734375 35.207031 C 300.734375 35.207031 250.691406 4.550781 251.214844 4.777344 "/>
<g clip-path="url(#clip1)" clip-rule="nonzero">
<path style=" stroke:none;fill-rule:nonzero;fill:rgb(94.499207%,36.099243%,14.498901%);fill-opacity:1;" d="M 268.949219 6.25 L 276.867188 6.25 L 347.113281 39.132813 L 369.289063 61.710938 L 362.785156 62.871094 L 329.976563 36.597656 L 268.949219 6.25 "/>
</g>
<path style=" stroke:none;fill-rule:nonzero;fill:rgb(94.499207%,36.099243%,14.498901%);fill-opacity:1;" d="M 34.75 111.328125 C 32.578125 112.085938 30.335938 112.757813 27.992188 113.335938 C 24.820313 114.191406 22.800781 115.023438 21.949219 115.835938 C 21.082031 116.679688 20.648438 117.664063 20.648438 118.730469 C 20.648438 119.941406 21.082031 120.964844 21.941406 121.777344 C 22.800781 122.523438 24.058594 122.933594 25.71875 122.933594 C 27.472656 122.933594 29.101563 122.480469 30.59375 121.628906 C 32.097656 120.792969 33.167969 119.753906 33.800781 118.566406 C 34.421875 117.355469 34.75 115.753906 34.75 113.824219 Z M 21.113281 103.03125 L 6.117188 101.421875 C 6.679688 98.792969 7.503906 96.746094 8.558594 95.261719 C 9.636719 93.742188 11.175781 92.40625 13.191406 91.339844 C 14.621094 90.53125 16.59375 89.910156 19.128906 89.464844 C 21.636719 89.066406 24.359375 88.84375 27.308594 88.84375 C 32.011719 88.84375 35.78125 89.066406 38.644531 89.601563 C 41.492188 90.132813 43.871094 91.246094 45.777344 92.902344 C 47.128906 94.070313 48.167969 95.710938 48.957031 97.804688 C 49.722656 99.957031 50.105469 101.949219 50.105469 103.878906 L 50.105469 121.992188 C 50.105469 123.902344 50.21875 125.425781 50.476563 126.492188 C 50.71875 127.617188 51.25 129 52.082031 130.699219 L 37.320313 130.699219 C 36.730469 129.625 36.351563 128.859375 36.167969 128.289063 C 35.980469 127.75 35.820313 126.898438 35.621094 125.6875 C 33.566406 127.664063 31.53125 129.082031 29.503906 129.925781 C 26.710938 131.097656 23.492188 131.628906 19.828125 131.628906 C 14.945313 131.628906 11.253906 130.519531 8.699219 128.242188 C 6.179688 125.972656 4.902344 123.203125 4.902344 119.890625 C 4.902344 116.765625 5.824219 114.226563 7.636719 112.226563 C 9.472656 110.234375 12.824219 108.742188 17.746094 107.753906 C 23.636719 106.546875 27.4375 105.753906 29.1875 105.269531 C 30.929688 104.761719 32.796875 104.136719 34.75 103.382813 C 34.75 101.464844 34.339844 100.089844 33.550781 99.328125 C 32.746094 98.570313 31.332031 98.164063 29.347656 98.164063 C 26.765625 98.164063 24.835938 98.570313 23.542969 99.421875 C 22.554688 100.042969 21.738281 101.253906 21.113281 103.03125 "/>
<path style=" stroke:none;fill-rule:nonzero;fill:rgb(94.499207%,36.099243%,14.498901%);fill-opacity:1;" d="M 59.503906 89.773438 L 74.097656 89.773438 L 74.097656 96.414063 C 76.273438 93.703125 78.496094 91.738281 80.726563 90.578125 C 82.964844 89.417969 85.675781 88.84375 88.878906 88.84375 C 93.21875 88.84375 96.621094 90.132813 99.078125 92.6875 C 101.519531 95.261719 102.753906 99.285156 102.753906 104.648438 L 102.753906 130.699219 L 86.957031 130.699219 L 86.957031 108.164063 C 86.957031 105.625 86.488281 103.796875 85.539063 102.714844 C 84.59375 101.640625 83.253906 101.117188 81.554688 101.117188 C 79.648438 101.117188 78.125 101.832031 76.949219 103.289063 C 75.769531 104.730469 75.179688 107.300781 75.179688 111.015625 L 75.179688 130.699219 L 59.503906 130.699219 L 59.503906 89.773438 "/>
<path style=" stroke:none;fill-rule:nonzero;fill:rgb(94.499207%,36.099243%,14.498901%);fill-opacity:1;" d="M 112.148438 74.210938 L 127.816406 74.210938 L 127.816406 95.003906 C 129.953125 92.765625 132.066406 91.207031 134.183594 90.277344 C 136.28125 89.289063 138.777344 88.84375 141.648438 88.84375 C 145.898438 88.84375 149.253906 90.132813 151.707031 92.71875 C 154.171875 95.300781 155.390625 99.277344 155.390625 104.648438 L 155.390625 130.699219 L 139.613281 130.699219 L 139.613281 108.164063 C 139.613281 105.625 139.113281 103.796875 138.175781 102.722656 C 137.234375 101.640625 135.894531 101.117188 134.1875 101.117188 C 132.304688 101.117188 130.773438 101.832031 129.59375 103.289063 C 128.410156 104.730469 127.816406 107.300781 127.816406 111.027344 L 127.816406 130.699219 L 112.148438 130.699219 L 112.148438 74.210938 "/>
<path style=" stroke:none;fill-rule:nonzero;fill:rgb(94.499207%,36.099243%,14.498901%);fill-opacity:1;" d="M 194.242188 106.632813 C 193.9375 103.605469 193.117188 101.421875 191.796875 100.089844 C 190.484375 98.792969 188.75 98.125 186.585938 98.125 C 184.09375 98.125 182.105469 99.101563 180.632813 101.117188 C 179.664063 102.363281 179.078125 104.183594 178.800781 106.632813 Z M 210.191406 114.191406 L 178.769531 114.191406 C 179.0625 116.679688 179.734375 118.566406 180.808594 119.8125 C 182.316406 121.542969 184.292969 122.445313 186.734375 122.445313 C 188.253906 122.445313 189.71875 122.089844 191.09375 121.285156 C 191.941406 120.792969 192.855469 119.941406 193.828125 118.6875 L 209.289063 120.113281 C 206.929688 124.226563 204.078125 127.164063 200.75 128.949219 C 197.414063 130.730469 192.644531 131.628906 186.394531 131.628906 C 180.976563 131.628906 176.710938 130.867188 173.613281 129.351563 C 170.496094 127.789063 167.925781 125.378906 165.878906 122.03125 C 163.847656 118.730469 162.824219 114.820313 162.824219 110.300781 C 162.824219 103.878906 164.871094 98.699219 168.964844 94.769531 C 173.066406 90.808594 178.714844 88.84375 185.921875 88.84375 C 191.792969 88.84375 196.414063 89.6875 199.796875 91.46875 C 203.1875 93.261719 205.757813 95.851563 207.539063 99.179688 C 209.304688 102.585938 210.191406 106.960938 210.191406 112.410156 L 210.191406 114.191406 "/>
<path style=" stroke:none;fill-rule:nonzero;fill:rgb(94.499207%,36.099243%,14.498901%);fill-opacity:1;" d="M 217.53125 89.773438 L 232.199219 89.773438 L 232.199219 95.710938 C 234.292969 93.210938 236.429688 91.429688 238.574219 90.402344 C 240.730469 89.335938 243.324219 88.84375 246.359375 88.84375 C 249.617188 88.84375 252.21875 89.417969 254.121094 90.53125 C 256.027344 91.699219 257.5625 93.441406 258.792969 95.710938 C 261.25 93.027344 263.488281 91.207031 265.519531 90.277344 C 267.554688 89.289063 270.066406 88.84375 273.035156 88.84375 C 277.425781 88.84375 280.851563 90.132813 283.3125 92.730469 C 285.792969 95.355469 287.015625 99.421875 287.015625 104.933594 L 287.015625 130.699219 L 271.273438 130.699219 L 271.273438 107.300781 C 271.273438 105.480469 270.925781 104.097656 270.191406 103.203125 C 269.160156 101.785156 267.847656 101.078125 266.292969 101.078125 C 264.441406 101.078125 262.953125 101.726563 261.832031 103.0625 C 260.6875 104.417969 260.132813 106.546875 260.132813 109.554688 L 260.132813 130.699219 L 244.410156 130.699219 L 244.410156 108.125 C 244.410156 106.324219 244.308594 105.074219 244.097656 104.460938 C 243.757813 103.429688 243.175781 102.585938 242.355469 101.949219 C 241.519531 101.328125 240.5625 101.023438 239.457031 101.023438 C 237.640625 101.023438 236.175781 101.6875 235.007813 103.0625 C 233.84375 104.417969 233.277344 106.632813 233.277344 109.769531 L 233.277344 130.699219 L 217.53125 130.699219 L 217.53125 89.773438 "/>
<path style=" stroke:none;fill-rule:nonzero;fill:rgb(94.499207%,36.099243%,14.498901%);fill-opacity:1;" d="M 312.128906 110.128906 C 312.128906 113.648438 312.789063 116.195313 314.117188 117.75 C 315.429688 119.359375 317.113281 120.113281 319.132813 120.113281 C 321.015625 120.113281 322.574219 119.359375 323.855469 117.796875 C 325.121094 116.234375 325.757813 113.648438 325.757813 109.941406 C 325.757813 106.738281 325.132813 104.328125 323.878906 102.8125 C 322.644531 101.300781 321.140625 100.535156 319.355469 100.535156 C 317.238281 100.535156 315.480469 101.328125 314.140625 102.898438 C 312.789063 104.507813 312.128906 106.867188 312.128906 110.128906 M 296.394531 74.210938 L 312.230469 74.210938 L 312.230469 93.742188 C 313.800781 92.105469 315.578125 90.894531 317.570313 90.042969 C 319.554688 89.242188 321.765625 88.84375 324.175781 88.84375 C 329.15625 88.84375 333.289063 90.628906 336.542969 94.199219 C 339.808594 97.804688 341.429688 102.945313 341.429688 109.636719 C 341.429688 114.140625 340.699219 118.070313 339.214844 121.460938 C 337.710938 124.894531 335.652344 127.429688 333.019531 129.121094 C 330.382813 130.777344 327.476563 131.628906 324.261719 131.628906 C 321.511719 131.628906 319.003906 131.046875 316.714844 129.839844 C 314.996094 128.949219 313.117188 127.207031 311.082031 124.632813 L 311.082031 130.699219 L 296.394531 130.699219 L 296.394531 74.210938 "/>
<path style=" stroke:none;fill-rule:nonzero;fill:rgb(94.499207%,36.099243%,14.498901%);fill-opacity:1;" d="M 349.574219 89.773438 L 365.246094 89.773438 L 365.246094 130.699219 L 349.574219 130.699219 Z M 349.574219 74.210938 L 365.246094 74.210938 L 365.246094 84.867188 L 349.574219 84.867188 L 349.574219 74.210938 "/>
<path style=" stroke:none;fill-rule:nonzero;fill:rgb(94.499207%,36.099243%,14.498901%);fill-opacity:1;" d="M 226.402344 155.132813 C 226.402344 156.8125 226.753906 158.039063 227.464844 158.851563 C 228.15625 159.644531 229.039063 160.054688 230.113281 160.054688 C 231.058594 160.054688 231.839844 159.679688 232.472656 158.890625 C 233.105469 158.136719 233.425781 156.8125 233.425781 154.964844 C 233.425781 153.21875 233.101563 152.023438 232.445313 151.179688 C 231.777344 150.421875 230.96875 150.015625 230.011719 150.015625 C 228.976563 150.015625 228.121094 150.421875 227.441406 151.207031 C 226.734375 152.023438 226.402344 153.316406 226.402344 155.132813 M 218.335938 173.621094 L 218.335938 144.570313 L 225.871094 144.570313 L 225.871094 147.695313 C 226.914063 146.347656 227.878906 145.460938 228.75 145.015625 C 229.933594 144.382813 231.214844 144.082031 232.632813 144.082031 C 235.464844 144.082031 237.640625 145.144531 239.1875 147.285156 C 240.714844 149.472656 241.480469 152.164063 241.480469 155.28125 C 241.480469 158.800781 240.65625 161.472656 238.972656 163.300781 C 237.289063 165.140625 235.164063 166.070313 232.597656 166.070313 C 231.367188 166.070313 230.238281 165.851563 229.203125 165.453125 C 228.183594 165.046875 227.28125 164.367188 226.472656 163.574219 L 226.472656 173.621094 L 218.335938 173.621094 "/>
<path style=" stroke:none;fill-rule:nonzero;fill:rgb(94.499207%,36.099243%,14.498901%);fill-opacity:1;" d="M 259.671875 155.640625 C 258.558594 156.046875 257.402344 156.347656 256.191406 156.664063 C 254.558594 157.113281 253.53125 157.554688 253.097656 157.949219 C 252.636719 158.394531 252.417969 158.890625 252.417969 159.445313 C 252.417969 160.09375 252.636719 160.59375 253.097656 160.992188 C 253.53125 161.398438 254.1875 161.609375 255.042969 161.609375 C 255.929688 161.609375 256.765625 161.398438 257.53125 160.941406 C 258.304688 160.496094 258.855469 159.964844 259.175781 159.335938 C 259.496094 158.714844 259.671875 157.90625 259.671875 156.925781 Z M 252.699219 151.355469 L 244.976563 150.546875 C 245.265625 149.214844 245.679688 148.140625 246.246094 147.382813 C 246.78125 146.621094 247.578125 145.960938 248.609375 145.375 C 249.355469 144.976563 250.355469 144.652344 251.652344 144.441406 C 252.9375 144.210938 254.347656 144.082031 255.851563 144.082031 C 258.273438 144.082031 260.214844 144.210938 261.667969 144.484375 C 263.144531 144.753906 264.355469 145.320313 265.339844 146.183594 C 266.027344 146.792969 266.578125 147.605469 266.960938 148.71875 C 267.359375 149.792969 267.554688 150.867188 267.554688 151.84375 L 267.554688 161.125 C 267.554688 162.105469 267.609375 162.90625 267.734375 163.449219 C 267.867188 164.035156 268.152344 164.734375 268.558594 165.585938 L 260.996094 165.585938 C 260.683594 165.046875 260.488281 164.652344 260.390625 164.339844 C 260.3125 164.058594 260.214844 163.636719 260.121094 163.039063 C 259.070313 164.035156 258.019531 164.773438 256.980469 165.179688 C 255.539063 165.808594 253.890625 166.070313 252.019531 166.070313 C 249.492188 166.070313 247.601563 165.5 246.308594 164.339844 C 244.988281 163.175781 244.363281 161.753906 244.363281 160.054688 C 244.363281 158.449219 244.816406 157.113281 245.75 156.089844 C 246.683594 155.046875 248.414063 154.296875 250.949219 153.808594 C 253.953125 153.183594 255.917969 152.785156 256.808594 152.511719 C 257.707031 152.292969 258.648438 151.921875 259.671875 151.578125 C 259.671875 150.546875 259.457031 149.882813 259.050781 149.472656 C 258.636719 149.074219 257.917969 148.902344 256.902344 148.902344 C 255.589844 148.902344 254.601563 149.125 253.9375 149.523438 C 253.421875 149.835938 253.007813 150.460938 252.699219 151.355469 "/>
<path style=" stroke:none;fill-rule:nonzero;fill:rgb(94.499207%,36.099243%,14.498901%);fill-opacity:1;" d="M 272.453125 144.570313 L 280.003906 144.570313 L 280.003906 148.011719 C 280.730469 146.53125 281.480469 145.515625 282.246094 144.917969 C 283.015625 144.34375 283.980469 144.082031 285.101563 144.082031 C 286.292969 144.082031 287.601563 144.484375 289.011719 145.195313 L 286.515625 150.945313 C 285.570313 150.546875 284.808594 150.328125 284.273438 150.328125 C 283.203125 150.328125 282.371094 150.769531 281.816406 151.671875 C 280.976563 152.859375 280.542969 155.1875 280.542969 158.535156 L 280.542969 165.585938 L 272.453125 165.585938 L 272.453125 144.570313 "/>
<path style=" stroke:none;fill-rule:nonzero;fill:rgb(94.499207%,36.099243%,14.498901%);fill-opacity:1;" d="M 305.457031 155.132813 C 305.457031 153.316406 305.125 152.023438 304.441406 151.207031 C 303.761719 150.421875 302.894531 150.015625 301.847656 150.015625 C 300.882813 150.015625 300.074219 150.421875 299.417969 151.179688 C 298.75 152.023438 298.433594 153.316406 298.433594 155.234375 C 298.433594 156.890625 298.75 158.136719 299.390625 158.890625 C 300.035156 159.679688 300.8125 160.054688 301.757813 160.054688 C 302.835938 160.054688 303.714844 159.644531 304.417969 158.851563 C 305.113281 158.039063 305.457031 156.8125 305.457031 155.132813 M 313.523438 173.621094 L 305.40625 173.621094 L 305.40625 163.574219 C 304.601563 164.367188 303.695313 165.046875 302.679688 165.453125 C 301.652344 165.851563 300.511719 166.070313 299.246094 166.070313 C 296.6875 166.070313 294.574219 165.140625 292.894531 163.300781 C 291.210938 161.472656 290.367188 158.851563 290.367188 155.417969 C 290.367188 153.085938 290.753906 151.089844 291.519531 149.296875 C 292.289063 147.554688 293.355469 146.261719 294.714844 145.375 C 296.074219 144.53125 297.570313 144.082031 299.226563 144.082031 C 300.625 144.082031 301.933594 144.382813 303.128906 145.015625 C 303.996094 145.460938 304.953125 146.347656 305.992188 147.695313 L 305.992188 144.570313 L 313.523438 144.570313 L 313.523438 173.621094 "/>
<path style=" stroke:none;fill-rule:nonzero;fill:rgb(94.499207%,36.099243%,14.498901%);fill-opacity:1;" d="M 340.589844 165.585938 L 333.085938 165.585938 L 333.085938 162.203125 C 331.953125 163.574219 330.835938 164.613281 329.679688 165.179688 C 328.550781 165.808594 327.140625 166.070313 325.472656 166.070313 C 323.238281 166.070313 321.5 165.414063 320.25 164.109375 C 318.988281 162.769531 318.355469 160.71875 318.355469 157.949219 L 318.355469 144.570313 L 326.441406 144.570313 L 326.441406 156.132813 C 326.441406 157.421875 326.714844 158.394531 327.183594 158.929688 C 327.6875 159.480469 328.378906 159.78125 329.257813 159.78125 C 330.21875 159.78125 331.023438 159.375 331.628906 158.671875 C 332.246094 157.90625 332.558594 156.566406 332.558594 154.6875 L 332.558594 144.570313 L 340.589844 144.570313 L 340.589844 165.585938 "/>
<path style=" stroke:none;fill-rule:nonzero;fill:rgb(94.499207%,36.099243%,14.498901%);fill-opacity:1;" d="M 360.625 153.21875 C 360.46875 151.671875 360.042969 150.546875 359.382813 149.882813 C 358.699219 149.214844 357.8125 148.847656 356.703125 148.847656 C 355.414063 148.847656 354.382813 149.390625 353.636719 150.421875 C 353.132813 151.054688 352.828125 151.960938 352.714844 153.21875 Z M 368.839844 157.113281 L 352.683594 157.113281 C 352.828125 158.394531 353.1875 159.335938 353.726563 160.011719 C 354.507813 160.894531 355.53125 161.339844 356.789063 161.339844 C 357.5625 161.339844 358.328125 161.179688 359.039063 160.765625 C 359.480469 160.496094 359.945313 160.054688 360.449219 159.445313 L 368.398438 160.140625 C 367.171875 162.277344 365.703125 163.808594 363.980469 164.695313 C 362.277344 165.628906 359.808594 166.070313 356.601563 166.070313 C 353.8125 166.070313 351.632813 165.671875 350.03125 164.917969 C 348.425781 164.109375 347.105469 162.871094 346.046875 161.179688 C 345 159.445313 344.449219 157.421875 344.449219 155.132813 C 344.449219 151.84375 345.519531 149.164063 347.628906 147.164063 C 349.738281 145.097656 352.640625 144.082031 356.371094 144.082031 C 359.382813 144.082031 361.753906 144.53125 363.492188 145.460938 C 365.242188 146.347656 366.554688 147.695313 367.476563 149.4375 C 368.378906 151.179688 368.839844 153.402344 368.839844 156.175781 L 368.839844 157.113281 "/>
<g clip-path="url(#clip2)" clip-rule="nonzero">
<path style="fill:none;stroke-width:15.7003;stroke-linecap:butt;stroke-linejoin:miter;stroke:rgb(94.499207%,36.099243%,14.498901%);stroke-opacity:1;stroke-miterlimit:4;" d="M 3.085938 326.557813 L 3667.148438 326.557813 " transform="matrix(0.1,0,0,-0.1,0,213.98)"/>
</g>
<g clip-path="url(#clip3)" clip-rule="nonzero">
<path style=" stroke:none;fill-rule:nonzero;fill:rgb(94.499207%,36.099243%,14.498901%);fill-opacity:1;" d="M 5.59375 213.5625 L 0 195.28125 L 3.203125 195.28125 L 6.117188 205.839844 L 7.199219 209.757813 C 7.242188 209.566406 7.550781 208.308594 8.144531 205.996094 L 11.058594 195.28125 L 14.234375 195.28125 L 16.976563 205.886719 L 17.878906 209.382813 L 18.933594 205.851563 L 22.070313 195.28125 L 25.082031 195.28125 L 19.367188 213.5625 L 16.148438 213.5625 L 13.234375 202.609375 L 12.53125 199.507813 L 8.832031 213.5625 L 5.59375 213.5625 "/>
</g>
<g clip-path="url(#clip4)" clip-rule="nonzero">
<path style=" stroke:none;fill-rule:nonzero;fill:rgb(94.499207%,36.099243%,14.498901%);fill-opacity:1;" d="M 32.808594 213.5625 L 27.21875 195.28125 L 30.417969 195.28125 L 33.324219 205.839844 L 34.40625 209.757813 C 34.457031 209.566406 34.777344 208.308594 35.355469 205.996094 L 38.273438 195.28125 L 41.457031 195.28125 L 44.1875 205.886719 L 45.097656 209.382813 L 46.152344 205.851563 L 49.28125 195.28125 L 52.292969 195.28125 L 46.585938 213.5625 L 43.363281 213.5625 L 40.453125 202.609375 L 39.742188 199.507813 L 36.054688 213.5625 L 32.808594 213.5625 "/>
</g>
<g clip-path="url(#clip5)" clip-rule="nonzero">
<path style=" stroke:none;fill-rule:nonzero;fill:rgb(94.499207%,36.099243%,14.498901%);fill-opacity:1;" d="M 60.03125 213.5625 L 54.429688 195.28125 L 57.632813 195.28125 L 60.535156 205.839844 L 61.625 209.757813 C 61.667969 209.566406 61.984375 208.308594 62.574219 205.996094 L 65.480469 195.28125 L 68.667969 195.28125 L 71.40625 205.886719 L 72.320313 209.382813 L 73.359375 205.851563 L 76.496094 195.28125 L 79.507813 195.28125 L 73.796875 213.5625 L 70.578125 213.5625 L 67.664063 202.609375 L 66.964844 199.507813 L 63.265625 213.5625 L 60.03125 213.5625 "/>
</g>
<g clip-path="url(#clip6)" clip-rule="nonzero">
<path style=" stroke:none;fill-rule:nonzero;fill:rgb(94.499207%,36.099243%,14.498901%);fill-opacity:1;" d="M 82.796875 210.035156 L 86.332031 210.035156 L 86.332031 213.570313 L 82.796875 213.570313 L 82.796875 210.035156 "/>
</g>
<g clip-path="url(#clip7)" clip-rule="nonzero">
<path style=" stroke:none;fill-rule:nonzero;fill:rgb(94.499207%,36.099243%,14.498901%);fill-opacity:1;" d="M 105.148438 204.382813 C 104.027344 204.859375 102.335938 205.246094 100.089844 205.550781 C 98.820313 205.742188 97.914063 205.953125 97.386719 206.1875 C 96.851563 206.410156 96.460938 206.75 96.167969 207.183594 C 95.878906 207.628906 95.734375 208.121094 95.734375 208.652344 C 95.734375 209.480469 96.054688 210.171875 96.667969 210.71875 C 97.300781 211.265625 98.21875 211.558594 99.417969 211.558594 C 100.613281 211.558594 101.671875 211.296875 102.605469 210.777344 C 103.527344 210.25 104.210938 209.535156 104.65625 208.628906 C 104.980469 207.917969 105.148438 206.898438 105.148438 205.539063 Z M 105.40625 211.308594 C 104.257813 212.285156 103.15625 212.96875 102.089844 213.375 C 101.03125 213.785156 99.890625 213.980469 98.675781 213.980469 C 96.667969 213.980469 95.125 213.488281 94.042969 212.507813 C 92.96875 211.511719 92.433594 210.273438 92.433594 208.75 C 92.433594 207.84375 92.632813 207.039063 93.039063 206.296875 C 93.445313 205.550781 93.984375 204.960938 94.640625 204.515625 C 95.296875 204.058594 96.042969 203.722656 96.871094 203.503906 C 97.476563 203.339844 98.398438 203.179688 99.621094 203.03125 C 102.121094 202.734375 103.964844 202.386719 105.148438 201.96875 C 105.160156 201.550781 105.164063 201.265625 105.164063 201.15625 C 105.164063 199.894531 104.875 199.003906 104.289063 198.476563 C 103.496094 197.789063 102.3125 197.445313 100.761719 197.445313 C 99.304688 197.445313 98.222656 197.691406 97.527344 198.210938 C 96.84375 198.707031 96.328125 199.621094 95.992188 200.921875 L 92.960938 200.496094 C 93.234375 199.203125 93.695313 198.160156 94.328125 197.359375 C 94.957031 196.566406 95.867188 195.953125 97.0625 195.527344 C 98.257813 195.089844 99.636719 194.875 101.210938 194.875 C 102.769531 194.875 104.03125 195.0625 105.011719 195.421875 C 105.988281 195.78125 106.710938 196.261719 107.164063 196.8125 C 107.621094 197.359375 107.945313 198.078125 108.132813 198.925781 C 108.230469 199.445313 108.28125 200.402344 108.28125 201.773438 L 108.28125 205.914063 C 108.28125 208.789063 108.351563 210.617188 108.480469 211.371094 C 108.609375 212.136719 108.871094 212.867188 109.265625 213.570313 L 106.023438 213.570313 C 105.710938 212.921875 105.496094 212.175781 105.40625 211.308594 "/>
</g>
<g clip-path="url(#clip8)" clip-rule="nonzero">
<path style=" stroke:none;fill-rule:nonzero;fill:rgb(94.499207%,36.099243%,14.498901%);fill-opacity:1;" d="M 114.84375 213.5625 L 114.84375 195.28125 L 117.640625 195.28125 L 117.640625 197.890625 C 118.980469 195.886719 120.910156 194.875 123.449219 194.875 C 124.558594 194.875 125.566406 195.074219 126.488281 195.457031 C 127.410156 195.875 128.105469 196.375 128.558594 197.035156 C 129.019531 197.660156 129.34375 198.425781 129.527344 199.316406 C 129.640625 199.894531 129.703125 200.890625 129.703125 202.324219 L 129.703125 213.5625 L 126.601563 213.5625 L 126.601563 202.449219 C 126.601563 201.179688 126.484375 200.242188 126.242188 199.621094 C 125.996094 198.992188 125.570313 198.476563 124.953125 198.125 C 124.339844 197.746094 123.621094 197.566406 122.804688 197.566406 C 121.472656 197.566406 120.335938 197.988281 119.386719 198.816406 C 118.417969 199.648438 117.9375 201.238281 117.9375 203.589844 L 117.9375 213.5625 L 114.84375 213.5625 "/>
</g>
<g clip-path="url(#clip9)" clip-rule="nonzero">
<path style=" stroke:none;fill-rule:nonzero;fill:rgb(94.499207%,36.099243%,14.498901%);fill-opacity:1;" d="M 136.207031 213.5625 L 136.207031 188.335938 L 139.304688 188.335938 L 139.304688 197.382813 C 140.753906 195.703125 142.578125 194.875 144.777344 194.875 C 146.128906 194.875 147.3125 195.148438 148.3125 195.675781 C 149.304688 196.214844 150.023438 196.9375 150.453125 197.890625 C 150.886719 198.832031 151.097656 200.1875 151.097656 201.972656 L 151.097656 213.5625 L 148 213.5625 L 148 201.972656 C 148 200.421875 147.667969 199.300781 146.992188 198.609375 C 146.320313 197.90625 145.367188 197.542969 144.144531 197.542969 C 143.222656 197.542969 142.359375 197.777344 141.554688 198.253906 C 140.746094 198.730469 140.164063 199.375 139.824219 200.1875 C 139.480469 201.015625 139.304688 202.132813 139.304688 203.566406 L 139.304688 213.5625 L 136.207031 213.5625 "/>
</g>
<g clip-path="url(#clip10)" clip-rule="nonzero">
<path style=" stroke:none;fill-rule:nonzero;fill:rgb(94.499207%,36.099243%,14.498901%);fill-opacity:1;" d="M 159.910156 202.664063 L 170.117188 202.664063 C 169.980469 201.121094 169.59375 199.96875 168.957031 199.222656 C 167.960938 198.011719 166.683594 197.421875 165.113281 197.421875 C 163.691406 197.421875 162.488281 197.90625 161.523438 198.851563 C 160.554688 199.804688 160.019531 201.082031 159.910156 202.664063 M 170.089844 207.675781 L 173.289063 208.078125 C 172.777344 209.941406 171.855469 211.398438 170.480469 212.421875 C 169.117188 213.460938 167.371094 213.980469 165.246094 213.980469 C 162.578125 213.980469 160.460938 213.152344 158.890625 211.511719 C 157.324219 209.867188 156.539063 207.558594 156.539063 204.585938 C 156.539063 201.511719 157.332031 199.117188 158.90625 197.421875 C 160.496094 195.726563 162.546875 194.875 165.078125 194.875 C 167.519531 194.875 169.523438 195.703125 171.066406 197.371094 C 172.613281 199.027344 173.390625 201.386719 173.390625 204.382813 C 173.390625 204.574219 173.390625 204.859375 173.375 205.210938 L 159.746094 205.210938 C 159.859375 207.230469 160.425781 208.753906 161.445313 209.820313 C 162.464844 210.890625 163.742188 211.4375 165.261719 211.4375 C 166.410156 211.4375 167.371094 211.128906 168.183594 210.535156 C 168.984375 209.941406 169.621094 208.988281 170.089844 207.675781 "/>
</g>
<g clip-path="url(#clip11)" clip-rule="nonzero">
<path style=" stroke:none;fill-rule:nonzero;fill:rgb(94.499207%,36.099243%,14.498901%);fill-opacity:1;" d="M 178.941406 213.5625 L 178.941406 195.28125 L 181.699219 195.28125 L 181.699219 197.84375 C 182.285156 196.953125 183.039063 196.226563 183.996094 195.679688 C 184.953125 195.148438 186.035156 194.875 187.253906 194.875 C 188.605469 194.875 189.71875 195.148438 190.578125 195.726563 C 191.445313 196.273438 192.0625 197.066406 192.417969 198.078125 C 193.859375 195.953125 195.734375 194.875 198.066406 194.875 C 199.875 194.875 201.265625 195.375 202.242188 196.375 C 203.210938 197.382813 203.707031 198.929688 203.707031 201.015625 L 203.707031 213.5625 L 200.617188 213.5625 L 200.617188 202.042969 C 200.617188 200.808594 200.527344 199.921875 200.328125 199.375 C 200.121094 198.832031 199.757813 198.394531 199.230469 198.050781 C 198.703125 197.734375 198.078125 197.566406 197.375 197.566406 C 196.085938 197.566406 195.015625 197.992188 194.171875 198.84375 C 193.324219 199.695313 192.894531 201.046875 192.894531 202.945313 L 192.894531 213.5625 L 189.796875 213.5625 L 189.796875 201.6875 C 189.796875 200.316406 189.542969 199.277344 189.039063 198.597656 C 188.539063 197.90625 187.707031 197.566406 186.554688 197.566406 C 185.695313 197.566406 184.882813 197.789063 184.144531 198.25 C 183.40625 198.707031 182.867188 199.375 182.53125 200.253906 C 182.203125 201.140625 182.042969 202.417969 182.042969 204.082031 L 182.042969 213.5625 L 178.941406 213.5625 "/>
</g>
<g clip-path="url(#clip12)" clip-rule="nonzero">
<path style=" stroke:none;fill-rule:nonzero;fill:rgb(94.499207%,36.099243%,14.498901%);fill-opacity:1;" d="M 212.878906 204.28125 C 212.878906 206.476563 213.191406 208.0625 213.777344 209.027344 C 214.753906 210.632813 216.074219 211.4375 217.742188 211.4375 C 219.09375 211.4375 220.261719 210.839844 221.25 209.65625 C 222.238281 208.496094 222.722656 206.738281 222.722656 204.40625 C 222.722656 202.019531 222.261719 200.253906 221.3125 199.140625 C 220.359375 197.992188 219.214844 197.421875 217.875 197.421875 C 216.515625 197.421875 215.355469 198.011719 214.359375 199.175781 C 213.382813 200.359375 212.878906 202.058594 212.878906 204.28125 M 212.917969 213.5625 L 210.042969 213.5625 L 210.042969 188.335938 L 213.144531 188.335938 L 213.144531 197.339844 C 214.445313 195.695313 216.121094 194.875 218.152344 194.875 C 219.273438 194.875 220.339844 195.089844 221.339844 195.558594 C 222.347656 196.015625 223.171875 196.644531 223.820313 197.457031 C 224.464844 198.289063 224.972656 199.277344 225.34375 200.421875 C 225.710938 201.585938 225.890625 202.824219 225.890625 204.148438 C 225.890625 207.285156 225.117188 209.695313 223.574219 211.414063 C 222.027344 213.125 220.164063 213.980469 218 213.980469 C 215.835938 213.980469 214.144531 213.070313 212.917969 211.265625 L 212.917969 213.5625 "/>
</g>
<g clip-path="url(#clip13)" clip-rule="nonzero">
<path style=" stroke:none;fill-rule:nonzero;fill:rgb(94.499207%,36.099243%,14.498901%);fill-opacity:1;" d="M 231.4375 195.28125 L 234.539063 195.28125 L 234.539063 213.570313 L 231.4375 213.570313 Z M 231.4375 188.335938 L 234.539063 188.335938 L 234.539063 191.894531 L 231.4375 191.894531 L 231.4375 188.335938 "/>
</g>
<g clip-path="url(#clip14)" clip-rule="nonzero">
<path style=" stroke:none;fill-rule:nonzero;fill:rgb(94.499207%,36.099243%,14.498901%);fill-opacity:1;" d="M 241.898438 210.035156 L 245.421875 210.035156 L 245.421875 213.570313 L 241.898438 213.570313 L 241.898438 210.035156 "/>
</g>
<g clip-path="url(#clip15)" clip-rule="nonzero">
<path style=" stroke:none;fill-rule:nonzero;fill:rgb(94.499207%,36.099243%,14.498901%);fill-opacity:1;" d="M 264.496094 206.878906 L 267.542969 207.269531 C 267.21875 209.371094 266.363281 211.011719 264.988281 212.191406 C 263.617188 213.375 261.941406 213.980469 259.941406 213.980469 C 257.4375 213.980469 255.429688 213.152344 253.90625 211.511719 C 252.386719 209.878906 251.628906 207.542969 251.628906 204.5 C 251.628906 202.523438 251.957031 200.792969 252.605469 199.316406 C 253.261719 197.839844 254.25 196.726563 255.59375 195.976563 C 256.929688 195.234375 258.386719 194.875 259.964844 194.875 C 261.949219 194.875 263.5625 195.375 264.828125 196.375 C 266.085938 197.382813 266.898438 198.816406 267.25 200.644531 L 264.242188 201.121094 C 263.957031 199.894531 263.445313 198.976563 262.722656 198.359375 C 261.992188 197.734375 261.105469 197.421875 260.082031 197.421875 C 258.519531 197.421875 257.257813 197.988281 256.269531 199.09375 C 255.300781 200.21875 254.8125 202.003906 254.8125 204.40625 C 254.8125 206.859375 255.285156 208.644531 256.226563 209.757813 C 257.160156 210.878906 258.394531 211.4375 259.910156 211.4375 C 261.121094 211.4375 262.140625 211.0625 262.953125 210.3125 C 263.769531 209.566406 264.285156 208.410156 264.496094 206.878906 "/>
</g>
<g clip-path="url(#clip16)" clip-rule="nonzero">
<path style=" stroke:none;fill-rule:nonzero;fill:rgb(94.499207%,36.099243%,14.498901%);fill-opacity:1;" d="M 273.988281 204.429688 C 273.988281 206.765625 274.503906 208.507813 275.515625 209.683594 C 276.542969 210.851563 277.835938 211.4375 279.375 211.4375 C 280.910156 211.4375 282.199219 210.839844 283.214844 209.679688 C 284.242188 208.496094 284.742188 206.714844 284.742188 204.328125 C 284.742188 202.058594 284.230469 200.339844 283.203125 199.175781 C 282.175781 198.011719 280.894531 197.445313 279.375 197.445313 C 277.835938 197.445313 276.542969 198.011719 275.515625 199.175781 C 274.503906 200.339844 273.988281 202.089844 273.988281 204.429688 M 270.808594 204.429688 C 270.808594 201.039063 271.746094 198.542969 273.632813 196.90625 C 275.195313 195.558594 277.113281 194.875 279.375 194.875 C 281.894531 194.875 283.9375 195.695313 285.539063 197.339844 C 287.140625 198.992188 287.929688 201.261719 287.929688 204.167969 C 287.929688 206.519531 287.574219 208.367188 286.878906 209.726563 C 286.167969 211.0625 285.144531 212.113281 283.792969 212.867188 C 282.449219 213.601563 280.976563 213.980469 279.375 213.980469 C 276.820313 213.980469 274.75 213.152344 273.175781 211.511719 C 271.597656 209.878906 270.808594 207.515625 270.808594 204.429688 "/>
</g>
<g clip-path="url(#clip17)" clip-rule="nonzero">
<path style=" stroke:none;fill-rule:nonzero;fill:rgb(94.499207%,36.099243%,14.498901%);fill-opacity:1;" d="M 293.332031 213.5625 L 293.332031 195.28125 L 296.09375 195.28125 L 296.09375 197.84375 C 296.667969 196.953125 297.433594 196.226563 298.390625 195.679688 C 299.328125 195.148438 300.425781 194.875 301.636719 194.875 C 302.996094 194.875 304.097656 195.148438 304.964844 195.726563 C 305.828125 196.273438 306.4375 197.066406 306.800781 198.078125 C 308.25 195.953125 310.128906 194.875 312.445313 194.875 C 314.257813 194.875 315.65625 195.375 316.621094 196.375 C 317.605469 197.382813 318.085938 198.929688 318.085938 201.015625 L 318.085938 213.5625 L 315.011719 213.5625 L 315.011719 202.042969 C 315.011719 200.808594 314.910156 199.921875 314.699219 199.375 C 314.511719 198.832031 314.144531 198.394531 313.613281 198.050781 C 313.089844 197.734375 312.464844 197.566406 311.761719 197.566406 C 310.472656 197.566406 309.402344 197.992188 308.554688 198.84375 C 307.714844 199.695313 307.28125 201.046875 307.28125 202.945313 L 307.28125 213.5625 L 304.1875 213.5625 L 304.1875 201.6875 C 304.1875 200.316406 303.933594 199.277344 303.425781 198.597656 C 302.925781 197.90625 302.097656 197.566406 300.945313 197.566406 C 300.082031 197.566406 299.273438 197.789063 298.53125 198.25 C 297.785156 198.707031 297.253906 199.375 296.917969 200.253906 C 296.59375 201.140625 296.425781 202.417969 296.425781 204.082031 L 296.425781 213.5625 L 293.332031 213.5625 "/>
</g>
<g clip-path="url(#clip18)" clip-rule="nonzero">
<path style=" stroke:none;fill-rule:nonzero;fill:rgb(94.499207%,36.099243%,14.498901%);fill-opacity:1;" d="M 325.320313 210.035156 L 328.851563 210.035156 L 328.851563 213.570313 L 325.320313 213.570313 L 325.320313 210.035156 "/>
</g>
<g clip-path="url(#clip19)" clip-rule="nonzero">
<path style=" stroke:none;fill-rule:nonzero;fill:rgb(94.499207%,36.099243%,14.498901%);fill-opacity:1;" d="M 338.824219 204.28125 C 338.824219 206.476563 339.132813 208.0625 339.714844 209.027344 C 340.699219 210.632813 342.015625 211.4375 343.679688 211.4375 C 345.03125 211.4375 346.203125 210.839844 347.1875 209.65625 C 348.171875 208.496094 348.679688 206.738281 348.679688 204.40625 C 348.679688 202.019531 348.199219 200.253906 347.246094 199.140625 C 346.300781 197.992188 345.160156 197.421875 343.8125 197.421875 C 342.464844 197.421875 341.289063 198.011719 340.308594 199.175781 C 339.320313 200.359375 338.824219 202.058594 338.824219 204.28125 M 338.855469 213.5625 L 335.980469 213.5625 L 335.980469 188.335938 L 339.082031 188.335938 L 339.082031 197.339844 C 340.382813 195.695313 342.0625 194.875 344.089844 194.875 C 345.214844 194.875 346.277344 195.089844 347.285156 195.558594 C 348.28125 196.015625 349.109375 196.644531 349.761719 197.457031 C 350.414063 198.289063 350.921875 199.277344 351.289063 200.421875 C 351.652344 201.585938 351.84375 202.824219 351.84375 204.148438 C 351.84375 207.285156 351.066406 209.695313 349.511719 211.414063 C 347.964844 213.125 346.101563 213.980469 343.9375 213.980469 C 341.773438 213.980469 340.085938 213.070313 338.855469 211.265625 L 338.855469 213.5625 "/>
</g>
<g clip-path="url(#clip20)" clip-rule="nonzero">
<path style=" stroke:none;fill-rule:nonzero;fill:rgb(94.499207%,36.099243%,14.498901%);fill-opacity:1;" d="M 357.335938 213.5625 L 357.335938 195.28125 L 360.117188 195.28125 L 360.117188 198.050781 C 360.832031 196.757813 361.484375 195.90625 362.09375 195.496094 C 362.695313 195.074219 363.363281 194.875 364.074219 194.875 C 365.117188 194.875 366.179688 195.210938 367.265625 195.875 L 366.199219 198.742188 C 365.4375 198.296875 364.683594 198.078125 363.925781 198.078125 C 363.246094 198.078125 362.644531 198.285156 362.097656 198.683594 C 361.558594 199.09375 361.179688 199.667969 360.945313 200.386719 C 360.609375 201.484375 360.433594 202.695313 360.433594 203.988281 L 360.433594 213.5625 L 357.335938 213.5625 "/>
</g>
</g>
</svg>
